<svg width="1114" height="438" viewBox="0 0 1114 438" fill="none" xmlns="http://www.w3.org/2000/svg">
	<path d="M416.4 163.64L418.791 164.371L419.778 161.14H416.4V163.64ZM239.76 195.384L242.149 196.119L242.153 196.107L239.76 195.384ZM229.52 228.664L227.131 227.929L226.135 231.164H229.52V228.664ZM272.528 228.664V231.164H274.388L274.923 229.382L272.528 228.664ZM278.672 208.184L281.067 208.902L281.083 208.847L281.097 208.79L278.672 208.184ZM361.616 202.04L364.008 202.768L364.99 199.54H361.616V202.04ZM302.224 397.112L299.969 398.192L302.745 403.986L304.616 397.84L302.224 397.112ZM243.856 275.256L246.111 274.176L245.431 272.756H243.856V275.256ZM182.928 298.808L185.318 299.542L185.323 299.524L185.329 299.505L182.928 298.808ZM158.864 377.144L161.253 377.879L161.254 377.878L158.864 377.144ZM59.536 396.6L57.147 395.863L56.1489 399.1H59.536V396.6ZM112.272 225.592L109.893 224.824L109.888 224.84L109.883 224.855L112.272 225.592ZM177.296 202.04V204.54H179.075L179.658 202.859L177.296 202.04ZM190.608 163.64L192.97 164.459L194.121 161.14H190.608V163.64ZM69.776 220.984L67.3892 220.24L67.3856 220.252L69.776 220.984ZM4.24 435L1.84957 434.268L0.859863 437.5H4.24V435ZM199.312 385.848L201.701 386.583L201.703 386.577L199.312 385.848ZM219.28 320.312L221.516 319.194L218.714 313.591L216.889 319.583L219.28 320.312ZM276.624 435L274.388 436.118L275.079 437.5H276.624V435ZM333.456 435V437.5H335.306L335.847 435.731L333.456 435ZM416.4 161.14H282.768V166.14H416.4V161.14ZM282.768 161.14C271.15 161.14 261.493 163.65 253.838 169.237C246.178 174.827 240.804 183.291 237.367 194.661L242.153 196.107C245.372 185.461 250.238 178.053 256.786 173.275C263.339 168.494 271.858 166.14 282.768 166.14V161.14ZM237.371 194.649L227.131 227.929L231.909 229.399L242.149 196.119L237.371 194.649ZM229.52 231.164H272.528V226.164H229.52V231.164ZM274.923 229.382L281.067 208.902L276.277 207.466L270.133 227.946L274.923 229.382ZM281.097 208.79C281.77 206.1 284.095 204.54 287.376 204.54V199.54C282.465 199.54 277.622 202.076 276.247 207.578L281.097 208.79ZM287.376 204.54H361.616V199.54H287.376V204.54ZM359.224 201.312L299.832 396.384L304.616 397.84L364.008 202.768L359.224 201.312ZM304.479 396.032L246.111 274.176L241.601 276.336L299.969 398.192L304.479 396.032ZM243.856 272.756H214.672V277.756H243.856V272.756ZM214.672 272.756C206.089 272.756 198.747 274.771 192.903 279.066C187.054 283.365 182.948 289.771 180.527 298.111L185.329 299.505C187.516 291.973 191.09 286.603 195.865 283.094C200.645 279.581 206.871 277.756 214.672 277.756V272.756ZM180.538 298.074L156.474 376.41L161.254 377.878L185.318 299.542L180.538 298.074ZM156.475 376.409C154.531 382.727 151.699 387.077 148.01 389.871C144.331 392.659 139.532 394.1 133.264 394.1V399.1C140.308 399.1 146.261 397.469 151.03 393.857C155.789 390.251 159.101 384.873 161.253 377.879L156.475 376.409ZM133.264 394.1H59.536V399.1H133.264V394.1ZM61.925 397.337L114.661 226.329L109.883 224.855L57.147 395.863L61.925 397.337ZM114.651 226.36C117.099 218.773 120.69 213.383 125.412 209.87C130.128 206.362 136.22 204.54 144.016 204.54V199.54C135.428 199.54 128.208 201.558 122.428 205.858C116.654 210.153 112.565 216.539 109.893 224.824L114.651 226.36ZM144.016 204.54H177.296V199.54H144.016V204.54ZM179.658 202.859L192.97 164.459L188.246 162.821L174.934 201.221L179.658 202.859ZM190.608 161.14H147.6V166.14H190.608V161.14ZM147.6 161.14C127.009 161.14 110.06 165.704 96.6522 175.51C83.2426 185.317 73.6451 200.169 67.3893 220.24L72.1628 221.728C78.195 202.375 87.2854 188.555 99.6038 179.546C111.924 170.536 127.743 166.14 147.6 166.14V161.14ZM67.3856 220.252L1.84957 434.268L6.63044 435.732L72.1664 221.716L67.3856 220.252ZM4.24 437.5H133.264V432.5H4.24V437.5ZM133.264 437.5C150.804 437.5 165.322 433.438 176.803 424.911C188.282 416.386 196.47 403.587 201.701 386.583L196.923 385.113C191.914 401.389 184.23 413.166 173.821 420.897C163.414 428.626 150.028 432.5 133.264 432.5V437.5ZM201.703 386.577L221.671 321.041L216.889 319.583L196.921 385.119L201.703 386.577ZM217.044 321.43L274.388 436.118L278.86 433.882L221.516 319.194L217.044 321.43ZM276.624 437.5H333.456V432.5H276.624V437.5ZM335.847 435.731L418.791 164.371L414.009 162.909L331.065 434.269L335.847 435.731ZM511.7 401.72L509.311 400.985L508.315 404.22H511.7V401.72ZM550.612 275.256L553.001 275.991L553.997 272.756H550.612V275.256ZM427.22 275.256V272.756H425.374L424.831 274.521L427.22 275.256ZM416.98 308.536L414.591 307.801L413.595 311.036H416.98V308.536ZM501.972 308.536L504.361 309.271L505.357 306.036H501.972V308.536ZM491.732 341.816V344.316H493.578L494.121 342.551L491.732 341.816ZM422.1 341.816V339.316H420.254L419.711 341.081L422.1 341.816ZM411.86 375.096L409.471 374.361L408.475 377.596H411.86V375.096ZM480.98 375.096L483.369 375.831L484.365 372.596H480.98V375.096ZM462.548 435L460.159 434.265L459.163 437.5H462.548V435ZM576.212 435V437.5H578.058L578.601 435.735L576.212 435ZM586.452 401.72L588.841 402.455L589.837 399.22H586.452V401.72ZM514.089 402.455L553.001 275.991L548.223 274.521L509.311 400.985L514.089 402.455ZM550.612 272.756H427.22V277.756H550.612V272.756ZM424.831 274.521L414.591 307.801L419.369 309.271L429.609 275.991L424.831 274.521ZM416.98 311.036H501.972V306.036H416.98V311.036ZM499.583 307.801L489.343 341.081L494.121 342.551L504.361 309.271L499.583 307.801ZM491.732 339.316H422.1V344.316H491.732V339.316ZM419.711 341.081L409.471 374.361L414.249 375.831L424.489 342.551L419.711 341.081ZM411.86 377.596H480.98V372.596H411.86V377.596ZM478.591 374.361L460.159 434.265L464.937 435.735L483.369 375.831L478.591 374.361ZM462.548 437.5H576.212V432.5H462.548V437.5ZM578.601 435.735L588.841 402.455L584.063 400.985L573.823 434.265L578.601 435.735ZM586.452 399.22H511.7V404.22H586.452V399.22ZM910.104 275.256L912.498 275.976L913.467 272.756H910.104V275.256ZM797.464 275.256V272.756H795.616L795.074 274.523L797.464 275.256ZM785.688 313.656L783.298 312.923L782.306 316.156H785.688V313.656ZM855.32 313.656L857.716 314.371L858.675 311.156H855.32V313.656ZM836.376 377.144L838.765 377.879L838.769 377.869L838.772 377.859L836.376 377.144ZM690.968 396.6L688.58 395.86L687.576 399.1H690.968V396.6ZM763.16 163.64L765.548 164.38L766.552 161.14H763.16V163.64ZM629.016 163.64V161.14H627.168L626.626 162.907L629.016 163.64ZM617.24 202.04L614.85 201.307L613.858 204.54H617.24V202.04ZM707.352 202.04L709.741 202.775L710.737 199.54H707.352V202.04ZM635.672 435L633.283 434.265L632.287 437.5H635.672V435ZM876.824 385.848L879.213 386.583L879.216 386.576L879.218 386.568L876.824 385.848ZM910.104 272.756H797.464V277.756H910.104V272.756ZM795.074 274.523L783.298 312.923L788.078 314.389L799.854 275.989L795.074 274.523ZM785.688 316.156H855.32V311.156H785.688V316.156ZM852.924 312.941L833.98 376.429L838.772 377.859L857.716 314.371L852.924 312.941ZM833.987 376.409C832.043 382.727 829.211 387.077 825.522 389.871C821.843 392.659 817.044 394.1 810.776 394.1V399.1C817.82 399.1 823.773 397.469 828.542 393.857C833.301 390.251 836.613 384.873 838.765 377.879L833.987 376.409ZM810.776 394.1H690.968V399.1H810.776V394.1ZM693.356 397.34L765.548 164.38L760.772 162.9L688.58 395.86L693.356 397.34ZM763.16 161.14H629.016V166.14H763.16V161.14ZM626.626 162.907L614.85 201.307L619.63 202.773L631.406 164.373L626.626 162.907ZM617.24 204.54H707.352V199.54H617.24V204.54ZM704.963 201.305L633.283 434.265L638.061 435.735L709.741 202.775L704.963 201.305ZM635.672 437.5H810.776V432.5H635.672V437.5ZM810.776 437.5C828.316 437.5 842.834 433.438 854.315 424.911C865.794 416.386 873.982 403.587 879.213 386.583L874.435 385.113C869.426 401.389 861.742 413.166 851.333 420.897C840.926 428.626 827.54 432.5 810.776 432.5V437.5ZM879.218 386.568L912.498 275.976L907.71 274.536L874.43 385.128L879.218 386.568ZM1035.7 401.72L1033.31 400.985L1032.32 404.22H1035.7V401.72ZM1074.61 275.256L1077 275.991L1078 272.756H1074.61V275.256ZM951.22 275.256V272.756H949.374L948.831 274.521L951.22 275.256ZM940.98 308.536L938.591 307.801L937.595 311.036H940.98V308.536ZM1025.97 308.536L1028.36 309.271L1029.36 306.036H1025.97V308.536ZM1015.73 341.816V344.316H1017.58L1018.12 342.551L1015.73 341.816ZM946.1 341.816V339.316H944.254L943.711 341.081L946.1 341.816ZM935.86 375.096L933.471 374.361L932.475 377.596H935.86V375.096ZM1004.98 375.096L1007.37 375.831L1008.36 372.596H1004.98V375.096ZM986.548 435L984.159 434.265L983.163 437.5H986.548V435ZM1100.21 435V437.5H1102.06L1102.6 435.735L1100.21 435ZM1110.45 401.72L1112.84 402.455L1113.84 399.22H1110.45V401.72ZM1038.09 402.455L1077 275.991L1072.22 274.521L1033.31 400.985L1038.09 402.455ZM1074.61 272.756H951.22V277.756H1074.61V272.756ZM948.831 274.521L938.591 307.801L943.369 309.271L953.609 275.991L948.831 274.521ZM940.98 311.036H1025.97V306.036H940.98V311.036ZM1023.58 307.801L1013.34 341.081L1018.12 342.551L1028.36 309.271L1023.58 307.801ZM1015.73 339.316H946.1V344.316H1015.73V339.316ZM943.711 341.081L933.471 374.361L938.249 375.831L948.489 342.551L943.711 341.081ZM935.86 377.596H1004.98V372.596H935.86V377.596ZM1002.59 374.361L984.159 434.265L988.937 435.735L1007.37 375.831L1002.59 374.361ZM986.548 437.5H1100.21V432.5H986.548V437.5ZM1102.6 435.735L1112.84 402.455L1108.06 400.985L1097.82 434.265L1102.6 435.735ZM1110.45 399.22H1035.7V404.22H1110.45V399.22ZM1059.83 3.89597L1061.09 1.73509L1059.08 0.563882L1057.77 2.48899L1059.83 3.89597ZM1010.68 76.088L1008.59 77.4659L1010.65 80.5763L1012.75 77.495L1010.68 76.088ZM973.816 20.28L975.902 18.9021L975.161 17.78H973.816V20.28ZM927.736 20.28V17.78H926.118L925.455 19.2557L927.736 20.28ZM900.6 80.696L898.319 79.6717L897.181 82.206L899.821 83.0716L900.6 80.696ZM931.832 90.936L931.053 93.3115L933.195 94.0137L934.114 91.9563L931.832 90.936ZM951.288 47.416L953.348 45.9997L950.824 42.3283L949.006 46.3957L951.288 47.416ZM996.344 112.952L994.284 114.368L995.029 115.452H996.344V112.952ZM1025.02 112.952V115.452H1026.34L1027.08 114.357L1025.02 112.952ZM1087.99 20.28L1090.06 21.6851L1091.57 19.4675L1089.25 18.1191L1087.99 20.28ZM1057.77 2.48899L1008.61 74.681L1012.75 77.495L1061.9 5.30294L1057.77 2.48899ZM1012.77 74.7101L975.902 18.9021L971.73 21.6579L1008.59 77.4659L1012.77 74.7101ZM973.816 17.78H927.736V22.78H973.816V17.78ZM925.455 19.2557L898.319 79.6717L902.881 81.7203L930.017 21.3043L925.455 19.2557ZM899.821 83.0716L931.053 93.3115L932.611 88.5604L901.379 78.3204L899.821 83.0716ZM934.114 91.9563L953.57 48.4363L949.006 46.3957L929.55 89.9156L934.114 91.9563ZM949.228 48.8323L994.284 114.368L998.404 111.536L953.348 45.9997L949.228 48.8323ZM996.344 115.452H1025.02V110.452H996.344V115.452ZM1027.08 114.357L1090.06 21.6851L1085.92 18.8748L1022.95 111.547L1027.08 114.357ZM1089.25 18.1191L1061.09 1.73509L1058.57 6.05684L1086.73 22.4408L1089.25 18.1191Z" fill="black" />
</svg>
