<svg width="285" height="545" viewBox="0 0 285 545" fill="none" xmlns="http://www.w3.org/2000/svg">
	<path d="M132.464 242C168.064 210.8 165.964 171.667 160.464 156C163.631 162.167 176.928 173 177.964 207.5C179 242 163.297 272.5 151.964 288.5L99.464 355.5C84.1307 372 58.764 415.4 79.964 457C106.464 509 164 507.5 191.964 506.5C219.928 505.5 266.5 486.5 284.964 448C283.131 464.667 270.064 503.3 232.464 524.5C185.464 551 136.5 547 104 535.5C57.2022 518.941 1.96404 459 8.96404 390C15.964 321 87.964 281 132.464 242Z" fill="#C4C4C4" />
	<path fill-rule="evenodd" clip-rule="evenodd" d="M62.964 0.5C81.2973 37.1667 106.964 127.9 62.964 197.5C7.964 284.5 -2.536 349 0.464004 406C0.464004 371.952 18.7902 323.263 62.964 289C140.964 228.5 172 202 146.964 141C146.464 145 144.564 154.1 140.964 158.5C132.297 117.833 104.564 29.3 62.964 0.5ZM98 179C101.866 179 105 175.866 105 172C105 168.134 101.866 165 98 165C94.134 165 91 168.134 91 172C91 175.866 94.134 179 98 179ZM108 152C108 155.866 104.866 159 101 159C97.134 159 94 155.866 94 152C94 148.134 97.134 145 101 145C104.866 145 108 148.134 108 152ZM88 199C91.866 199 95 195.866 95 192C95 188.134 91.866 185 88 185C84.134 185 81 188.134 81 192C81 195.866 84.134 199 88 199Z" fill="#C4C4C4" />
</svg>